<?xml version="1.0" encoding="UTF-8"?>
<svg width="24" height="24" viewBox="0 0 24 24" fill="none" xmlns="http://www.w3.org/2000/svg">
  <path d="M15.9 7.2C15.5 7.2 15.2 6.9 15.2 6.5C15.2 6.1 15.5 5.8 15.9 5.8C17.2 5.8 18.3 6.3 19.1 7.1C19.9 7.9 20.4 9 20.4 10.3C20.4 10.7 20.1 11 19.7 11C19.3 11 19 10.7 19 10.3C19 9.3 18.6 8.5 18 7.9C17.4 7.3 16.6 7.2 15.9 7.2Z" fill="currentColor"/>
  <path d="M20.3 3.7C20.7 3.7 21 4 21 4.4C21 4.8 20.7 5.1 20.3 5.1C17.8 5.1 15.5 6 13.8 7.7C12.1 9.4 11.2 11.7 11.2 14.2C11.2 14.6 10.9 14.9 10.5 14.9C10.1 14.9 9.8 14.6 9.8 14.2C9.8 11.3 10.8 8.7 12.8 6.7C14.8 4.7 17.4 3.7 20.3 3.7Z" fill="currentColor"/>
  <path d="M16.7 12.9C17.5 13.3 18.1 13.9 18.4 14.7C18.7 15.5 18.7 16.3 18.4 17.1C17.7 19 15.7 20.2 12.9 20.2C10.1 20.2 8.1 19 7.4 17.1C7.1 16.3 7.1 15.5 7.4 14.7C7.7 13.9 8.3 13.3 9.1 12.9C9.5 12.7 9.9 12.8 10.1 13.2C10.3 13.6 10.2 14 9.8 14.2C9.3 14.5 9 14.8 8.8 15.3C8.6 15.8 8.6 16.3 8.8 16.8C9.3 18.1 10.8 18.9 12.9 18.9C15 18.9 16.5 18.1 17 16.8C17.2 16.3 17.2 15.8 17 15.3C16.8 14.8 16.5 14.5 16 14.2C15.6 14 15.5 13.6 15.7 13.2C15.9 12.8 16.3 12.7 16.7 12.9Z" fill="currentColor"/>
  <path d="M13.8 15.2C13.8 15.6 13.5 15.9 13.1 15.9C12.7 15.9 12.4 15.6 12.4 15.2C12.4 14.8 12.7 14.5 13.1 14.5C13.5 14.5 13.8 14.8 13.8 15.2Z" fill="currentColor"/>
</svg> 