<?xml version="1.0" encoding="UTF-8"?>
<svg width="24" height="24" viewBox="0 0 24 24" fill="none" xmlns="http://www.w3.org/2000/svg">
  <path d="M19.2 3H4.8C3.8 3 3 3.8 3 4.8V19.2C3 20.2 3.8 21 4.8 21H19.2C20.2 21 21 20.2 21 19.2V4.8C21 3.8 20.2 3 19.2 3Z" fill="currentColor"/>
  <path d="M15.5 8.2H13.7V7.5C13.7 7.2 13.5 7 13.2 7H10.8C10.5 7 10.3 7.2 10.3 7.5V8.2H8.5C8.2 8.2 8 8.4 8 8.7V16.5C8 16.8 8.2 17 8.5 17H15.5C15.8 17 16 16.8 16 16.5V8.7C16 8.4 15.8 8.2 15.5 8.2ZM11.7 8.2V8.9H12.3V8.2H11.7ZM14.3 15.6H9.7V14.9H14.3V15.6ZM14.3 13.8H9.7V13.1H14.3V13.8ZM14.3 12H9.7V11.3H14.3V12Z" fill="white"/>
</svg> 